<svg width="56" height="60" viewBox="0 0 56 60" fill="none" xmlns="http://www.w3.org/2000/svg">
<path d="M0.857111 23.6709V17.343C0.857111 17.2886 0.862114 17.2354 0.87212 17.1823C0.882127 17.1291 0.895885 17.0772 0.914648 17.0266C0.915899 17.0253 0.9159 17.0253 0.9159 17.0241L0.930909 16.9848L7.17001 0.568354C7.29885 0.229114 7.62656 0 7.9868 0H48.0131C48.3734 0 48.7011 0.229114 48.8299 0.568354L55.069 16.9848L55.084 17.0241C55.084 17.0253 55.084 17.0253 55.0853 17.0266C55.104 17.0772 55.1178 17.1291 55.1278 17.1823C55.1378 17.2354 55.1428 17.2886 55.1428 17.343V23.6709C55.1428 25.9506 53.5255 27.8544 51.3904 28.2696V53.1646H54.2672C54.7501 53.1646 55.1428 53.562 55.1428 54.0506V59.1139C55.1428 59.6025 54.7501 60 54.2672 60H1.73269C1.24987 60 0.857111 59.6025 0.857111 59.1139V54.0506C0.857111 53.562 1.24987 53.1646 1.73269 53.1646H4.60958V28.2696C2.47442 27.8544 0.857111 25.9506 0.857111 23.6709ZM8.58845 1.77215L3.00728 16.4557H8.54091L11.8894 1.77215H8.58845ZM13.6868 1.77215L10.3383 16.4557H15.9908L18.2235 1.77215H13.6868ZM10.1132 18.2278V23.6709C10.1132 25.2759 11.404 26.5823 12.9901 26.5823C14.5761 26.5823 15.867 25.2759 15.867 23.6709V18.2278H10.1132ZM23.3719 1.77215H19.996L17.7632 16.4557H23.3719V1.77215ZM23.3719 18.2278H17.6181V23.6709C17.6181 25.2759 18.909 26.5823 20.495 26.5823C22.0811 26.5823 23.3719 25.2759 23.3719 23.6709V18.2278ZM30.8769 1.77215H25.1231V16.4557H30.8769V1.77215ZM30.8769 18.2278H25.1231V23.6709C25.1231 25.2759 26.4139 26.5823 28 26.5823C29.586 26.5823 30.8769 25.2759 30.8769 23.6709V18.2278ZM31.7524 26.4076C30.9119 27.5861 29.5422 28.3544 28 28.3544C26.4577 28.3544 25.0881 27.5861 24.2475 26.4076C23.4069 27.5861 22.0373 28.3544 20.495 28.3544C18.9528 28.3544 17.5831 27.5861 16.7426 26.4076C15.902 27.5861 14.5324 28.3544 12.9901 28.3544C11.4478 28.3544 10.0782 27.5861 9.23762 26.4076C8.55968 27.3582 7.53901 28.0405 6.36073 28.2696V34.1772H22.9967C23.4795 34.1772 23.8723 34.5747 23.8723 35.0633V42.6582C23.8723 43.1468 23.4795 43.5443 22.9967 43.5443H6.36073V48.1013H28.3752V35.0633C28.3752 34.5747 28.768 34.1772 29.2508 34.1772H41.759C42.2418 34.1772 42.6346 34.5747 42.6346 35.0633V48.1013H49.6392V28.2696C48.4609 28.0405 47.4403 27.3582 46.7623 26.4076C45.9218 27.5861 44.5521 28.3544 43.0098 28.3544C41.4676 28.3544 40.0979 27.5861 39.2574 26.4076C38.4168 27.5861 37.0472 28.3544 35.5049 28.3544C33.9626 28.3544 32.593 27.5861 31.7524 26.4076ZM6.36073 35.9494V41.7722H13.3653V35.9494H6.36073ZM15.1165 35.9494V41.7722H22.1211V35.9494H15.1165ZM6.36073 49.8734V53.1646H28.3752V49.8734H6.36073ZM30.1264 35.9494V53.1646H40.8834V35.9494H30.1264ZM42.6346 49.8734V53.1646H49.6392V49.8734H42.6346ZM45.8867 23.6709V18.2278H40.1329V23.6709C40.1329 25.2759 41.4238 26.5823 43.0098 26.5823C44.5959 26.5823 45.8867 25.2759 45.8867 23.6709ZM38.3818 23.6709V18.2278H32.628V23.6709C32.628 25.2759 33.9189 26.5823 35.5049 26.5823C37.0909 26.5823 38.3818 25.2759 38.3818 23.6709ZM32.628 1.77215V16.4557H38.2367L36.004 1.77215H32.628ZM37.7764 1.77215L40.0091 16.4557H45.5765L41.1123 1.77215H37.7764ZM47.4115 1.77215H42.9448L47.409 16.4557H52.9927L47.4115 1.77215ZM53.3917 23.6709V18.2278H47.6379V23.6709C47.6379 25.2759 48.9287 26.5823 50.5148 26.5823C52.1008 26.5823 53.3917 25.2759 53.3917 23.6709ZM2.60826 54.9367V58.2278H53.3917V54.9367H2.60826ZM5.48516 26.5823C7.0712 26.5823 8.36205 25.2759 8.36205 23.6709V18.2278H2.60826V23.6709C2.60826 25.2759 3.89911 26.5823 5.48516 26.5823Z" fill="#00C5CA"/>
</svg>
