<svg width="144" height="144" viewBox="0 0 56 18" fill="none" xmlns="http://www.w3.org/2000/svg">
<path fill-rule="evenodd" clip-rule="evenodd" d="M6.46302 6.64777C7.15109 6.70183 7.89642 6.76038 8.62066 6.9777V6.97821C10.4414 7.52407 11.5341 8.89995 11.5341 10.8421C11.5341 13.5525 9.32824 15.5355 6.27397 15.5355C3.2197 15.5355 0.953613 13.6744 0.953613 10.9227H3.36101C3.36101 12.2986 4.55476 13.2087 6.31478 13.2087C8.0748 13.2087 9.12673 12.2578 9.12673 10.9834C9.12673 10.0932 8.58087 9.54733 7.87227 9.28409C7.34483 9.08741 6.67441 9.02837 5.96938 8.96629C5.29556 8.90696 4.59013 8.84484 3.94768 8.65712C2.08666 8.11075 1.07503 6.67416 1.07503 4.85344C1.07503 2.24351 3.22021 0.321777 6.17347 0.321777C9.12673 0.321777 11.3117 2.1221 11.3117 4.73202H8.8839C8.82268 3.47756 7.77126 2.64806 6.15255 2.64806C4.53385 2.64806 3.50232 3.55868 3.50232 4.73202C3.50232 5.50082 3.94717 6.08749 4.71597 6.37062C5.20052 6.54859 5.80564 6.59613 6.46302 6.64777ZM25.3311 15.3125H14.0624V0.544202H25.3311V2.9113H16.4698V6.71446H21.4667V9.08156H16.4698V12.9459H25.3311V15.3125ZM37.3069 11.064L30.4484 0.544202H28.041V15.3125H30.4484V4.79273L37.3069 15.3125H39.7143V0.544202H37.3069V11.064ZM42.9099 0.544202H47.6645C51.9533 0.544202 55.0479 3.75968 55.0479 7.9475C55.0479 12.1353 51.9528 15.3115 47.664 15.3115H46.5815V17.6786L43.0364 14.1285L46.5815 10.5819V12.9454H47.6237C50.5366 12.9454 52.6206 10.8212 52.6206 7.94852C52.6206 5.07586 50.5366 2.9113 47.6237 2.9113H45.3377V10.4534L42.9099 12.9102V0.544202Z" fill="white"/>
</svg>
